<?xml version="1.0" encoding="UTF-8"?>
<svg id="Object" xmlns="http://www.w3.org/2000/svg" viewBox="0 0 2000 2000">
  <defs>
    <style>
      .cls-1 {
        fill: #ff7000;
        fill-rule: evenodd;
      }
    </style>
  </defs>
  <path class="cls-1" d="M995.76,271.46c-321.25,0-581.67,260.42-581.67,581.67s260.42,581.68,581.67,581.68,581.67-260.43,581.67-581.68-260.42-581.67-581.67-581.67ZM760.25,384.65c5.73,2.66,11.36,5.53,16.87,8.6,32.39,18.03,68.76,49.26,80.14,86.8-109.67,15.53-222.73,51.08-316.56,112.58,51.08-89.04,127.56-161.64,219.55-207.97ZM471.49,853.13c0-46.89,6.19-92.34,17.74-135.59,2.54-2.66,5.07-5.3,7.59-7.88,91.31-93.84,226.51-144.61,355.65-165.01-20.8,57.17-75.68,124.78-106.04,164.46-24.49,31.99-48.96,64-71.71,97.26-45.05,65.83-85.99,139.95-96.15,220.24-9.15,72.44,8.7,136.49,42.22,192.89-92.35-94.51-149.3-223.78-149.3-366.37ZM964.15,1376.43c-164.19-9.77-344.7-166.52-322.3-342.85,8.78-69.09,46.3-134.92,85.04-191.52,22.12-32.33,45.94-63.45,69.73-94.55,43.26-56.53,108.03-136.19,123.79-210.93,14.57-1.18,29.15-2.02,43.74-2.52v842.37ZM964.15,470.86c-14.49.46-28.98,1.23-43.44,2.32-10.71-48.87-46-89.96-86.85-118.81,41.41-13.44,85.09-21.84,130.29-24.53v141.02ZM1214.4,393.24c5.51-3.07,11.14-5.93,16.87-8.6,91.98,46.33,168.46,118.93,219.55,207.97-93.83-61.49-206.88-97.04-316.55-112.58,11.37-37.53,47.75-68.77,80.14-86.8ZM1027.37,329.84c45.21,2.69,88.88,11.1,130.3,24.53-40.85,28.85-76.15,69.93-86.85,118.81-14.46-1.09-28.95-1.86-43.45-2.32v-141.02ZM1027.37,1376.43v-842.39c14.59.48,29.18,1.31,43.73,2.48,15.75,74.76,80.54,154.44,123.81,210.98,23.79,31.1,47.62,62.22,69.74,94.55,38.74,56.6,76.25,122.43,85.04,191.52,22.4,176.33-158.12,333.09-322.31,342.85ZM1370.73,1219.5c33.52-56.4,51.38-120.46,42.22-192.89-10.15-80.29-51.1-154.41-96.15-220.24-22.76-33.25-47.23-65.27-71.71-97.26-30.38-39.7-85.3-107.36-106.08-164.56,129.28,20.35,264.24,71.12,355.69,165.12,2.52,2.59,5.05,5.22,7.59,7.88,11.56,43.25,17.75,88.69,17.75,135.59,0,142.59-56.95,271.85-149.31,366.37Z"/>
  <g>
    <path d="M361.8,1564.3c5.47,7.6,8.2,16.69,8.2,27.27s-2.76,19.68-8.27,26.3c-3.08,3.72-7.62,7.11-13.63,10.18,9.12,3.32,16,8.57,20.64,15.76,4.64,7.19,6.96,15.92,6.96,26.18s-2.65,20.08-7.95,28.48c-3.38,5.58-7.59,10.26-12.65,14.06-5.7,4.36-12.43,7.35-20.19,8.97-7.75,1.62-16.17,2.42-25.25,2.42h-80.5v-178.67h86.34c21.79.32,37.22,6.67,46.31,19.03ZM264.79,1576.3v39.39h43.42c7.76,0,14.05-1.47,18.89-4.42,4.84-2.95,7.26-8.18,7.26-15.7,0-8.32-3.2-13.82-9.6-16.49-5.52-1.86-12.56-2.79-21.11-2.79h-38.87ZM264.79,1645.27v47.64h43.38c7.75,0,13.78-1.05,18.09-3.15,7.83-3.88,11.74-11.31,11.74-22.3,0-9.29-3.8-15.68-11.38-19.15-4.24-1.94-10.19-2.95-17.85-3.03h-43.97Z"/>
    <path d="M458.91,1545.27h42.24l63.21,178.67h-40.48l-11.79-36.73h-65.8l-12.11,36.73h-39.05l63.78-178.67ZM456.45,1656.42h45.76l-22.57-70.3-23.19,70.3Z"/>
    <path d="M614,1668.78c1.16,8.16,3.42,14.26,6.81,18.3,6.19,7.35,16.79,11.03,31.81,11.03,8.99,0,16.3-.97,21.91-2.91,10.64-3.72,15.97-10.63,15.97-20.73,0-5.9-2.61-10.46-7.82-13.7-5.22-3.15-13.48-5.94-24.81-8.36l-19.34-4.24c-19.01-4.2-32.07-8.77-39.18-13.7-12.04-8.24-18.06-21.13-18.06-38.67,0-16,5.89-29.29,17.67-39.88,11.78-10.59,29.08-15.88,51.91-15.88,19.06,0,35.32,4.99,48.77,14.97,13.46,9.98,20.51,24.46,21.17,43.45h-35.88c-.66-10.75-5.47-18.38-14.41-22.91-5.97-2.99-13.38-4.48-22.24-4.48-9.86,0-17.73,1.94-23.61,5.82-5.88,3.88-8.82,9.29-8.82,16.24,0,6.38,2.9,11.15,8.7,14.3,3.73,2.1,11.64,4.57,23.74,7.39l31.35,7.39c13.74,3.23,24.04,7.56,30.9,12.97,10.65,8.41,15.97,20.57,15.97,36.49s-6.31,29.88-18.93,40.67-30.44,16.18-53.48,16.18-42.02-5.31-55.5-15.94c-13.48-10.63-20.21-25.23-20.21-43.82h35.64Z"/>
    <path d="M753.27,1545.27h36.73v73.62l69.03-73.62h48.24l-73.32,73.48,77.08,105.18h-48l-55.05-77.99-17.98,18.23v59.76h-36.73v-178.67Z"/>
    <path d="M1062.12,1576.9h-92.61v37.94h84.85v31.03h-84.85v45.94h96.97v32.12h-133.45v-178.67h129.09v31.64Z"/>
    <path d="M1227.33,1545.27v31.64h-53.45v147.03h-37.58v-147.03h-53.7v-31.64h144.73Z"/>
    <path d="M1367.67,1545.27h53.72v178.67h-34.79v-120.85c0-3.47.04-8.34.12-14.61.08-6.26.12-11.09.12-14.48l-33.86,149.94h-36.28l-33.62-149.94c0,3.39.04,8.22.12,14.48.08,6.26.12,11.13.12,14.61v120.85h-34.79v-178.67h54.33l32.52,140.48,32.28-140.48Z"/>
    <path d="M1507.03,1545.27h42.24l63.21,178.67h-40.49l-11.79-36.73h-65.8l-12.11,36.73h-39.05l63.78-178.67ZM1504.57,1656.42h45.76l-22.57-70.3-23.19,70.3Z"/>
    <path d="M1755.16,1646.6c-10.46,8.73-25.39,13.09-44.81,13.09h-37.2v64.24h-37.09v-178.67h76.71c17.69,0,31.79,4.61,42.3,13.82,10.51,9.21,15.77,23.48,15.77,42.79,0,21.09-5.23,36-15.69,44.73ZM1726.66,1582.24c-4.73-3.96-11.35-5.94-19.87-5.94h-33.64v52.61h33.64c8.52,0,15.14-2.14,19.87-6.43,4.73-4.28,7.09-11.07,7.09-20.36s-2.37-15.92-7.09-19.88Z"/>
  </g>
</svg>